<svg width="9" height="11" viewBox="0 0 9 11" fill="none" xmlns="http://www.w3.org/2000/svg">
<g clip-path="url(#clip0_0_88)">
<path d="M8.14616 5.30725C8.14616 5.51558 8.2502 5.93225 8.45827 6.55725C8.66634 7.18225 8.77037 7.59892 8.77037 7.80725C8.77037 8.23043 8.70698 8.63082 8.58018 9.00842C8.45339 9.38603 8.26808 9.6969 8.02424 9.94104C7.78041 10.1852 7.50894 10.3073 7.20984 10.3073H2.84034C2.75581 10.3073 2.68266 10.2763 2.62089 10.2145C2.55912 10.1526 2.52823 10.0794 2.52823 9.99475C2.52823 9.91011 2.55912 9.83687 2.62089 9.77502C2.68266 9.71318 2.75581 9.68225 2.84034 9.68225C2.93137 9.68225 3.00614 9.65295 3.06466 9.59436C3.12318 9.53577 3.15244 9.4609 3.15244 9.36975C3.15244 9.20048 3.08742 9.00354 2.95738 8.77893C2.82733 8.55432 2.67128 8.3232 2.48922 8.08557C2.30715 7.84794 2.12509 7.60217 1.94303 7.34827C1.76097 7.09436 1.60491 6.81441 1.47487 6.50842C1.34482 6.20243 1.2798 5.90621 1.2798 5.61975C1.2798 5.13147 1.47487 4.72782 1.865 4.40881C1.78698 4.17444 1.59191 4.05725 1.2798 4.05725C1.09124 4.05725 0.894544 3.99052 0.689723 3.85706C0.484903 3.72359 0.323973 3.58362 0.206932 3.43713C0.0898922 3.29065 0.0313721 3.18486 0.0313721 3.11975C0.0313721 3.03512 0.0622577 2.96187 0.124029 2.90002C0.1858 2.83818 0.25895 2.80725 0.343479 2.80725C0.395497 2.80725 0.450766 2.76168 0.509286 2.67053C0.567806 2.57939 0.634454 2.46545 0.70923 2.32874C0.784006 2.19202 0.87016 2.05367 0.967694 1.9137C1.06523 1.77372 1.19527 1.64351 1.35783 1.52307C1.52038 1.40263 1.70245 1.31962 1.90402 1.27405V0.307251C2.05357 0.307251 2.22913 0.422811 2.4307 0.653931C2.63227 0.88505 2.76231 1.12431 2.82083 1.3717C3.13294 1.50191 3.37027 1.72815 3.53283 2.05041C3.69538 2.37268 3.77666 2.72913 3.77666 3.11975C3.77666 3.30855 3.8173 3.48759 3.89858 3.65686C3.97985 3.82613 4.09527 3.9775 4.24482 4.11096C4.39437 4.24443 4.51629 4.34534 4.61057 4.4137C4.70485 4.48206 4.82352 4.55855 4.96657 4.64319C4.99258 4.66272 5.01208 4.67574 5.02509 4.68225C5.40222 4.89709 5.71432 5.10543 5.96141 5.30725C6.41006 5.67834 6.78232 6.14384 7.07817 6.70373C7.37402 7.26363 7.52195 7.73564 7.52195 8.11975C7.52195 8.14579 7.5252 8.17509 7.5317 8.20764C7.5382 8.24019 7.56746 8.28577 7.61948 8.34436C7.6715 8.40295 7.74302 8.43225 7.83405 8.43225C7.92508 8.43225 7.99986 8.38179 8.05838 8.28088C8.1169 8.17997 8.14616 8.02209 8.14616 7.80725C8.14616 7.57939 8.1039 7.35152 8.01937 7.12366C7.93484 6.89579 7.8308 6.67932 7.70726 6.47424C7.58372 6.26916 7.46017 6.05595 7.33663 5.83459C7.21309 5.61324 7.10905 5.34794 7.02453 5.0387C6.94 4.72945 6.89773 4.4023 6.89773 4.05725C6.89773 3.74475 7.02778 3.45829 7.28787 3.19788C7.54796 2.93746 7.83405 2.80725 8.14616 2.80725C8.32172 2.80725 8.46965 2.86747 8.58994 2.98791C8.71023 3.10836 8.77037 3.25647 8.77037 3.43225C8.77037 3.53642 8.75087 3.62919 8.71185 3.71057C8.67284 3.79195 8.62245 3.86682 8.56068 3.93518C8.49891 4.00354 8.46477 4.04423 8.45827 4.05725C8.2502 4.4023 8.14616 4.81897 8.14616 5.30725Z" fill="#818AF9"/>
</g>
<defs>
<clipPath id="clip0_0_88">
<rect width="8.739" height="10" fill="white" transform="translate(0.0313721 0.307251)"/>
</clipPath>
</defs>
</svg>
