<svg width="11" height="11" viewBox="0 0 11 11" fill="none" xmlns="http://www.w3.org/2000/svg">
<g clip-path="url(#clip0_0_90)">
<path d="M9.54154 10.3073C9.35237 10.3073 9.16809 10.2682 8.9887 10.1901C8.80931 10.1119 8.67722 10.0371 8.59242 9.96545C8.50762 9.89384 8.40651 9.79944 8.28909 9.68225C7.87161 10.0989 7.24539 10.3073 6.41042 10.3073H1.71375C1.62895 10.3073 1.55556 10.2763 1.49359 10.2145C1.43162 10.1526 1.40064 10.0794 1.40064 9.99475C1.40064 9.91011 1.43162 9.83687 1.49359 9.77502C1.55556 9.71318 1.62895 9.68225 1.71375 9.68225C1.79203 9.68225 1.88498 9.60901 1.99261 9.46252C2.10025 9.31604 2.20299 9.13049 2.30083 8.90588C2.39868 8.68127 2.48185 8.41272 2.55034 8.10022C2.61884 7.78772 2.65308 7.48173 2.65308 7.18225C2.65308 7.01298 2.63188 6.86975 2.58948 6.75256C2.54708 6.63538 2.4949 6.53446 2.43293 6.44983C2.37096 6.36519 2.30899 6.27242 2.24702 6.17151C2.18505 6.0706 2.13286 5.92086 2.09046 5.72229C2.04806 5.52372 2.02686 5.28121 2.02686 4.99475C2.02686 4.82548 2.04806 4.68713 2.09046 4.57971C2.13286 4.47229 2.18505 4.39091 2.24702 4.33557C2.30899 4.28023 2.37096 4.22327 2.43293 4.16467C2.4949 4.10608 2.54708 4.01656 2.58948 3.89612C2.63188 3.77568 2.65308 3.62105 2.65308 3.43225C2.65308 3.01558 2.44434 2.80725 2.02686 2.80725C1.73332 2.80725 1.45119 2.69495 1.18048 2.47034C0.90977 2.24573 0.774414 2.04553 0.774414 1.86975C0.774414 1.72001 0.844538 1.57841 0.984786 1.44495C1.12503 1.31148 1.26365 1.24475 1.40064 1.24475C1.51153 1.24475 1.61427 1.2122 1.70886 1.14709C1.80344 1.08199 1.89314 1.00387 1.97794 0.91272C2.06274 0.821574 2.15569 0.730428 2.2568 0.639282C2.35791 0.548136 2.4949 0.470011 2.66776 0.404907C2.84062 0.339803 3.04447 0.307251 3.27931 0.307251C3.58589 0.307251 3.83541 0.343058 4.02784 0.414673C4.22027 0.486287 4.36378 0.579061 4.45837 0.692993C4.55295 0.806925 4.6296 0.966431 4.68831 1.17151C4.74702 1.37659 4.78779 1.58004 4.81062 1.78186C4.83345 1.98368 4.87422 2.24084 4.93293 2.55334C4.99164 2.86584 5.06665 3.15881 5.15798 3.43225C5.28192 3.80334 5.57383 4.27698 6.03371 4.85315C6.49359 5.42932 6.8279 5.78902 7.03665 5.93225C7.87161 6.48564 8.28909 7.31897 8.28909 8.43225C8.28909 8.75126 8.475 9.03935 8.84682 9.29651C9.21864 9.55367 9.65895 9.68225 10.1678 9.68225C10.3374 9.68225 10.5363 9.6497 10.7646 9.58459C10.7059 9.81246 10.5624 9.98987 10.3341 10.1168C10.1058 10.2438 9.8416 10.3073 9.54154 10.3073ZM3.90553 7.18225C3.88596 7.28642 3.85987 7.42151 3.82725 7.58752C3.79464 7.75354 3.72451 8.00582 3.61688 8.34436C3.50925 8.6829 3.39672 8.92053 3.27931 9.05725H4.53175C4.53175 8.7773 4.49914 8.53479 4.43391 8.32971C4.36867 8.12463 4.29692 7.97652 4.21864 7.88538C4.14036 7.79423 4.06861 7.68844 4.00338 7.56799C3.93815 7.44755 3.90553 7.31897 3.90553 7.18225Z" fill="#818AF9"/>
</g>
<defs>
<clipPath id="clip0_0_90">
<rect width="10" height="10" fill="white" transform="translate(0.770386 0.307251)"/>
</clipPath>
</defs>
</svg>
